<?xml version="1.0" encoding="UTF-8" standalone="no"?>
<svg
   width="107.39583mm"
   height="80.463654mm"
   viewBox="0 0 107.39583 80.463654"
   xmlns="http://www.w3.org/2000/svg" xmlns:xlink= "http://www.w3.org/1999/xlink">
  <defs
     id="defs2" />

  <g
     id="layer1"
     transform="translate(-35.705412,-54.136715)">
    <g
       id="g4574"
       transform="translate(35.546847,-2.1381562)">
      <path
         style="opacity:1;fill:#fff;fill-opacity:1;stroke:none;stroke-width:17.29942322;stroke-linecap:round;stroke-linejoin:round;stroke-miterlimit:4;stroke-dasharray:none;stroke-dashoffset:10.01574802;stroke-opacity:1;paint-order:normal"
         d="M 233.30664 134.56055 C 230.87423 134.4172 227.74139 142.86908 225.30664 142.96484 C 222.87189 143.06061 219.08551 134.88089 216.67188 135.21484 C 214.25824 135.54879 212.83413 144.44866 210.46484 145.01758 C 208.09556 145.5865 202.78649 138.30315 200.48438 139.10156 C 198.18226 139.89997 198.52136 148.90752 196.30859 149.92773 C 194.09583 150.94795 187.46735 144.84008 185.36523 146.07227 C 183.26312 147.30446 185.35403 156.07161 183.38281 157.50391 C 181.4116 158.93621 173.71977 154.23881 171.89844 155.85742 C 170.0771 157.47604 173.83751 165.66769 172.18359 167.45703 C 170.52968 169.24638 162.06822 166.14114 160.59766 168.08398 C 159.12709 170.02682 164.41367 177.32667 163.14062 179.4043 C 161.86758 181.48192 152.96367 180.08494 151.90039 182.27734 C 150.83711 184.46974 157.44678 190.5987 156.60352 192.88477 C 155.76025 195.17083 146.7538 195.53878 146.13867 197.89648 C 145.52354 200.25419 153.20138 204.97616 152.82031 207.38281 C 152.43924 209.78946 143.6785 211.90743 143.53516 214.33984 C 143.39181 216.77226 151.84369 219.90509 151.93945 222.33984 C 152.03522 224.77459 143.8555 228.56097 144.18945 230.97461 C 144.5234 233.38825 153.42327 234.81236 153.99219 237.18164 C 154.56111 239.55092 147.27776 244.86195 148.07617 247.16406 C 148.87458 249.46617 157.88213 249.12512 158.90234 251.33789 C 159.92256 253.55066 153.81468 260.17914 155.04688 262.28125 C 156.27907 264.38336 165.04622 262.29246 166.47852 264.26367 C 167.91082 266.23489 163.21342 273.92867 164.83203 275.75 C 166.45065 277.57133 174.6423 273.80898 176.43164 275.46289 C 178.22098 277.1168 175.11575 285.58022 177.05859 287.05078 C 179.00143 288.52134 186.30128 283.23281 188.37891 284.50586 C 190.45653 285.77891 189.05955 294.68477 191.25195 295.74805 C 193.44435 296.81132 199.57331 290.20166 201.85938 291.04492 C 204.14544 291.88819 204.51534 300.89464 206.87305 301.50977 C 209.23076 302.12489 213.95077 294.4451 216.35742 294.82617 C 218.76407 295.20724 220.88204 303.96994 223.31445 304.11328 C 225.74687 304.25662 228.8797 295.80475 231.31445 295.70898 C 233.7492 295.61322 237.53558 303.79294 239.94922 303.45898 C 242.36286 303.12503 243.78697 294.22322 246.15625 293.6543 C 248.52553 293.08538 253.83656 300.37068 256.13867 299.57227 C 258.44078 298.77385 258.09973 289.76631 260.3125 288.74609 C 262.52527 287.72588 269.15375 293.83375 271.25586 292.60156 C 273.35797 291.36937 271.26706 282.60027 273.23828 281.16797 C 275.2095 279.73567 282.90327 284.43307 284.72461 282.81445 C 286.54594 281.19584 282.78359 273.00419 284.4375 271.21484 C 286.09141 269.4255 294.55483 272.53268 296.02539 270.58984 C 297.49595 268.647 292.20742 261.34716 293.48047 259.26953 C 294.75352 257.19191 303.65938 258.58693 304.72266 256.39453 C 305.78593 254.20213 299.17627 248.07317 300.01953 245.78711 C 300.86279 243.50105 309.86925 243.1331 310.48438 240.77539 C 311.0995 238.41768 303.41971 233.69571 303.80078 231.28906 C 304.18185 228.88241 312.94455 226.76444 313.08789 224.33203 C 313.23123 221.89962 304.77936 218.76678 304.68359 216.33203 C 304.58783 213.89728 312.76754 210.1109 312.43359 207.69727 C 312.09964 205.28363 303.19783 203.85952 302.62891 201.49023 C 302.05999 199.12095 309.34529 193.81188 308.54688 191.50977 C 307.74846 189.20765 298.74092 189.54675 297.7207 187.33398 C 296.70049 185.12122 302.80836 178.49274 301.57617 176.39062 C 300.34398 174.28851 291.57488 176.37942 290.14258 174.4082 C 288.71028 172.43699 293.40768 164.74516 291.78906 162.92383 C 290.17045 161.10249 281.9788 164.8629 280.18945 163.20898 C 278.40011 161.55507 281.50729 153.09361 279.56445 151.62305 C 277.62161 150.15249 270.32177 155.43906 268.24414 154.16602 C 266.16652 152.89297 267.56154 143.98906 265.36914 142.92578 C 263.17674 141.86251 257.04778 148.47217 254.76172 147.62891 C 252.47566 146.78564 252.10771 137.77919 249.75 137.16406 C 247.39229 136.54893 242.67032 144.22677 240.26367 143.8457 C 237.85702 143.46463 235.73905 134.70389 233.30664 134.56055 z M 231.14648 165.36328 A 54.421969 54.421969 0 0 1 281.63477 205.66016 A 54.421969 54.421969 0 0 1 243.15234 272.3125 A 54.421969 54.421969 0 0 1 176.5 233.83203 A 54.421969 54.421969 0 0 1 214.98242 167.17773 A 54.421969 54.421969 0 0 1 231.14648 165.36328 z "
         transform="matrix(0.26458333,0,0,0.26458333,0.158565,56.274871)"
         id="path815" />
      <path
         style="opacity:1;fill:#fff;fill-opacity:1;stroke:none;stroke-width:17.29942322;stroke-linecap:round;stroke-linejoin:round;stroke-miterlimit:4;stroke-dasharray:none;stroke-dashoffset:10.01574802;stroke-opacity:1;paint-order:normal"
         d="M 89.773438 55.876953 C 87.341025 55.73361 84.208187 64.185485 81.773438 64.28125 C 79.338688 64.377015 75.552311 56.197299 73.138672 56.53125 C 70.725033 56.865201 69.300925 65.765064 66.931641 66.333984 C 64.562357 66.902905 59.253283 59.619557 56.951172 60.417969 C 54.649061 61.21638 54.990112 70.223927 52.777344 71.244141 C 50.564576 72.264354 43.934146 66.156482 41.832031 67.388672 C 39.729917 68.620862 41.820826 77.388012 39.849609 78.820312 C 37.878393 80.252613 30.186569 75.555212 28.365234 77.173828 C 26.5439 78.792444 30.304303 86.984094 28.650391 88.773438 C 26.996478 90.562782 18.535015 87.457551 17.064453 89.400391 C 15.593891 91.34323 20.880471 98.643079 19.607422 100.7207 C 18.334373 102.79833 9.4304636 101.4033 8.3671875 103.5957 C 7.3039114 105.7881 13.913576 111.91511 13.070312 114.20117 C 12.227049 116.48723 3.2205981 116.85713 2.6054688 119.21484 C 1.9903394 121.57255 9.6681808 126.29257 9.2871094 128.69922 C 8.906038 131.10587 0.14529667 133.22579 0.001953125 135.6582 C -0.14139042 138.09062 8.3104852 141.2215 8.40625 143.65625 C 8.5020148 146.091 0.32229913 149.87933 0.65625 152.29297 C 0.99020087 154.70661 9.8900636 156.12876 10.458984 158.49805 C 11.027905 160.86733 3.744557 166.17836 4.5429688 168.48047 C 5.3413805 170.78258 14.348927 170.44153 15.369141 172.6543 C 16.389354 174.86706 10.281482 181.49554 11.513672 183.59766 C 12.745862 185.69977 21.513012 183.60886 22.945312 185.58008 C 24.377613 187.55129 19.680212 195.24507 21.298828 197.06641 C 22.917444 198.88774 31.109094 195.12734 32.898438 196.78125 C 34.687782 198.43516 31.582551 206.89663 33.525391 208.36719 C 35.46823 209.83775 42.768079 204.54922 44.845703 205.82227 C 46.923328 207.09531 45.528302 216.00118 47.720703 217.06445 C 49.913104 218.12773 56.040109 211.51806 58.326172 212.36133 C 60.612235 213.20459 60.982134 222.21104 63.339844 222.82617 C 65.697553 223.4413 70.417569 215.76346 72.824219 216.14453 C 75.230868 216.5256 77.350791 225.28634 79.783203 225.42969 C 82.215615 225.57303 85.3465 217.12116 87.78125 217.02539 C 90.216 216.92963 94.00433 225.10934 96.417969 224.77539 C 98.831608 224.44144 100.25376 215.54158 102.62305 214.97266 C 104.99233 214.40374 110.30336 221.68708 112.60547 220.88867 C 114.90758 220.09026 114.56653 211.08271 116.7793 210.0625 C 118.99206 209.04229 125.62054 215.15016 127.72266 213.91797 C 129.82477 212.68578 127.73386 203.91668 129.70508 202.48438 C 131.67629 201.05207 139.37007 205.74948 141.19141 204.13086 C 143.01274 202.51224 139.25234 194.32255 140.90625 192.5332 C 142.56016 190.74386 151.02163 193.84909 152.49219 191.90625 C 153.96275 189.96341 148.67422 182.66356 149.94727 180.58594 C 151.22031 178.50831 160.12618 179.90334 161.18945 177.71094 C 162.25273 175.51854 155.64306 169.38958 156.48633 167.10352 C 157.32959 164.81745 166.33604 164.44951 166.95117 162.0918 C 167.5663 159.73409 159.88846 155.01212 160.26953 152.60547 C 160.6506 150.19882 169.41134 148.08085 169.55469 145.64844 C 169.69803 143.21603 161.24616 140.08319 161.15039 137.64844 C 161.05463 135.21369 169.23434 131.42731 168.90039 129.01367 C 168.56644 126.60003 159.66658 125.17592 159.09766 122.80664 C 158.52874 120.43736 165.81208 115.12828 165.01367 112.82617 C 164.21526 110.52406 155.20771 110.86511 154.1875 108.65234 C 153.16729 106.43958 159.27516 99.809146 158.04297 97.707031 C 156.81078 95.604917 148.04363 97.695826 146.61133 95.724609 C 145.17903 93.753393 149.87643 86.061569 148.25781 84.240234 C 146.6392 82.4189 138.44755 86.179303 136.6582 84.525391 C 134.86886 82.871478 137.97409 74.410015 136.03125 72.939453 C 134.08841 71.468891 126.78856 76.755471 124.71094 75.482422 C 122.63331 74.209373 124.02834 65.305464 121.83594 64.242188 C 119.64354 63.178911 113.51458 69.788576 111.22852 68.945312 C 108.94245 68.102049 108.57451 59.095598 106.2168 58.480469 C 103.85909 57.865339 99.139071 65.543181 96.732422 65.162109 C 94.325772 64.781038 92.20585 56.020297 89.773438 55.876953 z M 87.613281 86.679688 A 54.421969 54.421969 0 0 1 138.10156 126.97656 A 54.421969 54.421969 0 0 1 99.621094 193.63086 A 54.421969 54.421969 0 0 1 32.966797 155.14844 A 54.421969 54.421969 0 0 1 71.449219 88.494141 A 54.421969 54.421969 0 0 1 87.613281 86.679688 z "
         transform="matrix(0.26458333,0,0,0.26458333,0.158565,56.274871)"
         id="path815-9" />
      <g
         transform="rotate(-3.7474,-478.02153,-338.68164)"
         id="g4593-3-6">
        <g
           id="g4649"
           transform="rotate(0.84013342,56.662846,114.59916)">
          <path
             style="opacity:1;fill:#fff;fill-opacity:1;stroke:none;stroke-width:17.29942322;stroke-linecap:round;stroke-linejoin:round;stroke-miterlimit:4;stroke-dasharray:none;stroke-dashoffset:10.01574802;stroke-opacity:1;paint-order:normal"
             d="M 327.45117 0.001953125 C 325.02113 -0.1771507 321.76402 8.2291182 319.32812 8.2890625 C 316.89223 8.3490068 313.22688 0.11369429 310.80859 0.41210938 C 308.3903 0.71052446 306.83638 9.5890349 304.45898 10.123047 C 302.08159 10.657059 296.87806 3.2960808 294.56445 4.0605469 C 292.25085 4.8250129 292.45996 13.836661 290.23242 14.824219 C 288.00489 15.811777 281.46571 9.6074547 279.3457 10.808594 C 277.22569 12.009733 279.18738 20.807785 277.19531 22.210938 C 275.20324 23.61409 267.57932 18.802878 265.73438 20.394531 C 263.88943 21.986184 267.53161 30.233222 265.85156 31.998047 C 264.17151 33.762872 255.75484 30.532125 254.25586 32.453125 C 252.75688 34.374125 257.93628 41.751871 256.63281 43.810547 C 255.32934 45.869223 246.44697 44.343006 245.35156 46.519531 C 244.25616 48.696056 250.77523 54.919946 249.89844 57.193359 C 249.02164 59.466772 240.00911 59.702374 239.35938 62.050781 C 238.70964 64.399188 246.31877 69.233981 245.90234 71.634766 C 245.48592 74.03555 236.69473 76.025037 236.51562 78.455078 C 236.33652 80.885119 244.74084 84.140277 244.80078 86.576172 C 244.86073 89.012067 236.62541 92.679366 236.92383 95.097656 C 237.22224 97.515946 246.10271 99.06987 246.63672 101.44727 C 247.17073 103.82466 239.80975 109.02624 240.57422 111.33984 C 241.33868 113.65345 250.34838 113.44629 251.33594 115.67383 C 252.3235 117.90136 246.11917 124.44054 247.32031 126.56055 C 248.52145 128.68056 257.3195 126.71887 258.72266 128.71094 C 260.12581 130.70301 255.31655 138.32498 256.9082 140.16992 C 258.49986 142.01487 266.74494 138.37464 268.50977 140.05469 C 270.27459 141.73474 267.04384 150.14946 268.96484 151.64844 C 270.88584 153.14742 278.26359 147.96802 280.32227 149.27148 C 282.38094 150.57495 280.85472 159.45928 283.03125 160.55469 C 285.20778 161.65009 291.43167 155.13102 293.70508 156.00781 C 295.97849 156.88461 296.21605 165.89518 298.56445 166.54492 C 300.91286 167.19466 305.7457 159.58748 308.14648 160.00391 C 310.54727 160.42033 312.53676 169.21152 314.9668 169.39062 C 317.39684 169.56973 320.65395 161.16541 323.08984 161.10547 C 325.52574 161.04552 329.19109 169.27888 331.60938 168.98047 C 334.02766 168.68205 335.58159 159.80354 337.95898 159.26953 C 340.33638 158.73552 345.53991 166.0965 347.85352 165.33203 C 350.16712 164.56757 349.95801 155.55592 352.18555 154.56836 C 354.41308 153.5808 360.95226 159.78512 363.07227 158.58398 C 365.19228 157.38285 363.23059 148.58675 365.22266 147.18359 C 367.21473 145.78044 374.8367 150.5897 376.68164 148.99805 C 378.52658 147.40639 374.88636 139.16131 376.56641 137.39648 C 378.24646 135.63166 386.66313 138.86045 388.16211 136.93945 C 389.66109 135.01845 384.48169 127.64266 385.78516 125.58398 C 387.08863 123.52531 395.971 125.05153 397.06641 122.875 C 398.16181 120.69847 391.64274 114.47263 392.51953 112.19922 C 393.39633 109.92581 402.4069 109.6902 403.05664 107.3418 C 403.70638 104.99339 396.0992 100.16055 396.51562 97.759766 C 396.93205 95.358981 405.72324 93.369494 405.90234 90.939453 C 406.08145 88.509412 397.67713 85.252301 397.61719 82.816406 C 397.55724 80.380511 405.7906 76.715165 405.49219 74.296875 C 405.19377 71.878585 396.31526 70.322708 395.78125 67.945312 C 395.24724 65.567917 402.60822 60.36634 401.84375 58.052734 C 401.07928 55.739129 392.06959 55.946284 391.08203 53.71875 C 390.09447 51.491216 396.2988 44.953994 395.09766 42.833984 C 393.89652 40.713974 385.09847 42.675663 383.69531 40.683594 C 382.29216 38.691524 387.10142 31.0676 385.50977 29.222656 C 383.91811 27.377712 375.67303 31.017941 373.9082 29.337891 C 372.14338 27.65784 375.37413 19.243118 373.45312 17.744141 C 371.53212 16.245163 364.15438 21.424563 362.0957 20.121094 C 360.03703 18.817625 361.56324 9.9332974 359.38672 8.8378906 C 357.21019 7.7424839 350.98435 14.261561 348.71094 13.384766 C 346.43752 12.50797 346.20192 3.4973961 343.85352 2.8476562 C 341.50511 2.1979164 336.67227 9.8070521 334.27148 9.390625 C 331.8707 8.9741979 329.88121 0.18105695 327.45117 0.001953125 z M 324.54297 30.898438 A 54.421969 54.421969 0 0 1 376.21484 82.494141 A 54.421969 54.421969 0 0 1 324.62305 139.60742 A 54.421969 54.421969 0 0 1 267.51172 88.015625 A 54.421969 54.421969 0 0 1 319.10352 30.904297 A 54.421969 54.421969 0 0 1 324.54297 30.898438 z "
             transform="matrix(0.2642428,0.01341956,-0.01341956,0.2642428,-27.077704,87.908215)"
             id="path815-9-5" />
        </g>
      </g>
    </g>
  </g>
</svg>
